<mxfile host="Electron" modified="2024-02-10T18:14:36.108Z" agent="Mozilla/5.0 (Windows NT 10.0; Win64; x64) AppleWebKit/537.36 (KHTML, like Gecko) draw.io/23.0.2 Chrome/120.0.6099.109 Electron/28.1.0 Safari/537.36" etag="UaKop12bXC7eIZTGyCVJ" version="23.0.2" type="device">
  <diagram name="Page-1" id="mfTxVTZTduYqPGkgZTGn">
    <mxGraphModel dx="733" dy="437" grid="1" gridSize="10" guides="1" tooltips="1" connect="1" arrows="1" fold="1" page="1" pageScale="1" pageWidth="850" pageHeight="1100" math="0" shadow="0">
      <root>
        <mxCell id="0" />
        <mxCell id="1" parent="0" />
        <mxCell id="pxjNF--nk2lxwaZwhS-p-7" value="Frontend" style="rounded=0;whiteSpace=wrap;html=1;" vertex="1" parent="1">
          <mxGeometry x="180" y="110" width="120" height="60" as="geometry" />
        </mxCell>
        <mxCell id="pxjNF--nk2lxwaZwhS-p-8" value="Backend" style="rounded=0;whiteSpace=wrap;html=1;" vertex="1" parent="1">
          <mxGeometry x="180" y="290" width="120" height="60" as="geometry" />
        </mxCell>
        <mxCell id="pxjNF--nk2lxwaZwhS-p-16" style="edgeStyle=orthogonalEdgeStyle;rounded=0;orthogonalLoop=1;jettySize=auto;html=1;entryX=1;entryY=0.5;entryDx=0;entryDy=0;" edge="1" parent="1" source="pxjNF--nk2lxwaZwhS-p-15" target="pxjNF--nk2lxwaZwhS-p-7">
          <mxGeometry relative="1" as="geometry" />
        </mxCell>
        <mxCell id="pxjNF--nk2lxwaZwhS-p-15" value="Actor" style="shape=umlActor;verticalLabelPosition=bottom;verticalAlign=top;html=1;outlineConnect=0;" vertex="1" parent="1">
          <mxGeometry x="450" y="110" width="30" height="60" as="geometry" />
        </mxCell>
        <mxCell id="pxjNF--nk2lxwaZwhS-p-18" style="edgeStyle=orthogonalEdgeStyle;rounded=0;orthogonalLoop=1;jettySize=auto;html=1;entryX=0.492;entryY=-0.1;entryDx=0;entryDy=0;entryPerimeter=0;" edge="1" parent="1" source="pxjNF--nk2lxwaZwhS-p-7" target="pxjNF--nk2lxwaZwhS-p-8">
          <mxGeometry relative="1" as="geometry" />
        </mxCell>
        <mxCell id="pxjNF--nk2lxwaZwhS-p-19" value="Api" style="edgeLabel;html=1;align=center;verticalAlign=middle;resizable=0;points=[];" vertex="1" connectable="0" parent="pxjNF--nk2lxwaZwhS-p-18">
          <mxGeometry x="-0.1304" y="2" relative="1" as="geometry">
            <mxPoint as="offset" />
          </mxGeometry>
        </mxCell>
      </root>
    </mxGraphModel>
  </diagram>
</mxfile>
